Coordinates
version=1
nRows=9
nColumns=24
inDegrees=yes

Units are S.I. units (second, meters, Newtons, ...)
Angles are in degrees.

endheader
time	pelvis_tilt	pelvis_list	pelvis_rotation	pelvis_tx	pelvis_ty	pelvis_tz	hip_flexion_r	hip_adduction_r	hip_rotation_r	knee_angle_r	ankle_angle_r	subtalar_angle_r	mtp_angle_r	hip_flexion_l	hip_adduction_l	hip_rotation_l	knee_angle_l	ankle_angle_l	subtalar_angle_l	mtp_angle_l	lumbar_extension	lumbar_bending	lumbar_rotation
      0.57600000	     -0.39095890	      5.54634716	      4.07239167	     -0.88473520	      0.99440634	      0.27172796	     22.53791648	     -7.04959505	    -11.55853587	      5.16668679	      0.73671684	     -5.67210745	     -0.93585713	    -13.43617774	      6.39725759	     -1.22291364	     -6.27958396	     12.38815367	     -7.60088076	     -0.80477036	    -11.43273761	     -5.51369682	     -2.38836692
      0.58016667	     -0.11646907	      5.46628155	      4.16296176	     -0.87911254	      0.99410289	      0.27167055	     22.38561345	     -7.01246141	    -11.40417302	      4.49894599	      0.81274912	     -5.88693090	     -6.63220014	    -13.94432058	      6.23413192	     -1.06586811	     -6.55227337	     12.55440192	     -7.57414168	     -8.13018936	    -11.74617596	     -5.29773789	     -2.47753347
      0.58433333	      0.03645892	      5.37237636	      4.29682861	     -0.87338794	      0.99366112	      0.27160180	     22.34722260	     -6.97397802	    -11.28360527	      3.81475510	      0.71824001	     -6.27391851	     -6.59245289	    -14.29230127	      6.04695987	     -0.91177522	     -6.88811661	     12.67997349	     -7.53862418	     -8.15199450	    -11.89968040	     -5.07050042	     -2.60446819
      0.58850000	      0.30651183	      5.23998732	      4.45123874	     -0.86764859	      0.99346606	      0.27154484	     22.14664832	     -6.88826106	    -11.25643133	      3.16046035	      0.51540274	     -6.67870727	     -6.51327427	    -14.73584657	      5.79358080	     -0.80246897	     -7.26944846	     12.75710897	     -7.48461194	     -8.17744941	    -12.19322449	     -4.78862039	     -2.81525288
      0.59266667	      0.68444658	      5.04875988	      4.61429181	     -0.86176273	      0.99349057	      0.27139395	     21.78304661	     -6.74098633	    -11.31762040	      2.54608975	      0.29811799	     -6.95588433	     -6.33612141	    -15.31639210	      5.46860943	     -0.64777442	     -7.60861619	     12.84961080	     -7.43797700	     -8.20045033	    -12.58338631	     -4.39937256	     -3.04400707
      0.59683333	      0.87983543	      4.93808003	      4.76445613	     -0.85597232	      0.99325477	      0.27140726	     21.65566589	     -6.66925226	    -11.27498341	      1.85653456	      0.00503381	     -7.38472714	     -6.23619593	    -15.65504460	      5.23904177	     -0.49135543	     -8.03617102	     12.85702783	     -7.42619911	     -8.19902359	    -12.78610018	     -4.15546787	     -3.13922886
      0.60100000	      1.11164293	      4.79951376	      4.91401966	     -0.85013756	      0.99311630	      0.27144711	     21.46444699	     -6.55872727	    -11.25526415	      1.19610376	     -0.35498868	     -7.83749781	     -6.12596223	    -16.00973307	      4.97052614	     -0.36022959	     -8.50860604	     12.88118338	     -7.37040374	     -8.18212376	    -13.01756455	     -3.87329872	     -3.29291942
      0.60516667	      1.51754555	      4.59111156	      5.02575995	     -0.84416617	      0.99328591	      0.27152299	     21.03814137	     -6.34592538	    -11.29798782	      0.61998273	     -0.77825281	     -8.18399223	     -5.85466130	    -16.56119120	      4.61552811	     -0.29824980	     -8.95105111	     12.91871020	     -7.27921154	     -8.11624717	    -13.43038932	     -3.48183811	     -3.49799839
      0.60933333	      1.63285452	      4.47737552	      5.15639247	     -0.83827323	      0.99306160	      0.27164440	     20.96123135	     -6.25237878	    -11.25825959	     -0.02771858	     -1.26287974	     -8.63323330	     -5.78711886	    -16.75814591	      4.38863181	     -0.14205616	     -9.48924639	     12.88798750	     -7.31472166	     -8.09095220	    -13.51945308	     -3.24541570	     -3.51183444
